REM DIRINDEX 1\2\3,1\2\4,1\2\5,1\2\6
REM DIRNAME folder01,folder02,folder03,folder04,folder05,folder06
TITLE ""
FILE "066 066.mp3" MP3
  TRACK 01 AUDIO
    TITLE "0:"
    INDEX 01 00:00:00
  TRACK 02 AUDIO
    TITLE "3:cjc157_2452"
    INDEX 01 00:00:11
  TRACK 03 AUDIO
    TITLE "0:"
    INDEX 01 00:01:34
  TRACK 04 AUDIO
    TITLE "4:cjc157_2453"
    INDEX 01 00:02:06
  TRACK 05 AUDIO
    TITLE "0:"
    INDEX 01 00:03:14
  TRACK 06 AUDIO
    TITLE "5:cjc157_2454"
    INDEX 01 00:03:59
  TRACK 07 AUDIO
    TITLE "0:"
    INDEX 01 00:05:57
  TRACK 08 AUDIO
    TITLE "5:cjc157_2455"
    INDEX 01 00:06:31
  TRACK 09 AUDIO
    TITLE "0:"
    INDEX 01 00:09:16
  TRACK 10 AUDIO
    TITLE "3:cjc157_2456"
    INDEX 01 00:09:65
  TRACK 11 AUDIO
    TITLE "0:"
    INDEX 01 00:11:19
  TRACK 12 AUDIO
    TITLE "4:cjc157_2457"
    INDEX 01 00:11:62
  TRACK 13 AUDIO
    TITLE "0:"
    INDEX 01 00:13:04
  TRACK 14 AUDIO
    TITLE "5:cjc157_2458"
    INDEX 01 00:13:45
  TRACK 15 AUDIO
    TITLE "0:"
    INDEX 01 00:16:02
  TRACK 16 AUDIO
    TITLE "5:cjc157_2459"
    INDEX 01 00:16:42
  TRACK 17 AUDIO
    TITLE "0:"
    INDEX 01 00:18:52
  TRACK 18 AUDIO
    TITLE "3:cjc157_2460"
    INDEX 01 00:19:22
  TRACK 19 AUDIO
    TITLE "0:"
    INDEX 01 00:20:45
  TRACK 20 AUDIO
    TITLE "4:cjc157_2461"
    INDEX 01 00:21:13
  TRACK 21 AUDIO
    TITLE "0:"
    INDEX 01 00:22:29
  TRACK 22 AUDIO
    TITLE "5:cjc157_2462"
    INDEX 01 00:22:74
  TRACK 23 AUDIO
    TITLE "0:"
    INDEX 01 00:25:15
  TRACK 24 AUDIO
    TITLE "5:cjc157_2463"
    INDEX 01 00:25:64
  TRACK 25 AUDIO
    TITLE "0:"
    INDEX 01 00:27:20
  TRACK 26 AUDIO
    TITLE "3:cjc157_2464"
    INDEX 01 00:27:65
  TRACK 27 AUDIO
    TITLE "0:"
    INDEX 01 00:29:07
  TRACK 28 AUDIO
    TITLE "4:cjc157_2465"
    INDEX 01 00:29:56
  TRACK 29 AUDIO
    TITLE "0:"
    INDEX 01 00:30:63
  TRACK 30 AUDIO
    TITLE "5:cjc157_2466"
    INDEX 01 00:31:33
  TRACK 31 AUDIO
    TITLE "0:"
    INDEX 01 00:33:56
  TRACK 32 AUDIO
    TITLE "5:cjc157_2467"
    INDEX 01 00:34:26
  TRACK 33 AUDIO
    TITLE "0:"
    INDEX 01 00:36:33
  TRACK 34 AUDIO
    TITLE "3:cjc157_2468"
    INDEX 01 00:37:07
  TRACK 35 AUDIO
    TITLE "0:"
    INDEX 01 00:37:63
  TRACK 36 AUDIO
    TITLE "4:cjc157_2469"
    INDEX 01 00:38:33
  TRACK 37 AUDIO
    TITLE "0:"
    INDEX 01 00:39:31
  TRACK 38 AUDIO
    TITLE "5:cjc157_2470"
    INDEX 01 00:40:01
  TRACK 39 AUDIO
    TITLE "0:"
    INDEX 01 00:41:55
  TRACK 40 AUDIO
    TITLE "5:cjc157_2471"
    INDEX 01 00:42:23
  TRACK 41 AUDIO
    TITLE "0:"
    INDEX 01 00:44:01
  TRACK 42 AUDIO
    TITLE "3:cjc157_2472"
    INDEX 01 00:44:48
  TRACK 43 AUDIO
    TITLE "0:"
    INDEX 01 00:45:65
  TRACK 44 AUDIO
    TITLE "4:cjc157_2473"
    INDEX 01 00:46:37
  TRACK 45 AUDIO
    TITLE "0:"
    INDEX 01 00:47:38
  TRACK 46 AUDIO
    TITLE "5:cjc157_2474"
    INDEX 01 00:48:12
  TRACK 47 AUDIO
    TITLE "0:"
    INDEX 01 00:50:70
  TRACK 48 AUDIO
    TITLE "5:cjc157_2475"
    INDEX 01 00:51:42
  TRACK 49 AUDIO
    TITLE "0:"
    INDEX 01 00:55:32
  TRACK 50 AUDIO
    TITLE "3:cjc157_2476"
    INDEX 01 00:56:02
  TRACK 51 AUDIO
    TITLE "0:"
    INDEX 01 00:57:21
  TRACK 52 AUDIO
    TITLE "4:cjc157_2477"
    INDEX 01 00:57:66
  TRACK 53 AUDIO
    TITLE "0:"
    INDEX 01 00:58:73
  TRACK 54 AUDIO
    TITLE "5:cjc157_2478"
    INDEX 01 00:59:41
  TRACK 55 AUDIO
    TITLE "0:"
    INDEX 01 01:02:42
  TRACK 56 AUDIO
    TITLE "5:cjc157_2479"
    INDEX 01 01:03:12
  TRACK 57 AUDIO
    TITLE "0:"
    INDEX 01 01:04:50
  TRACK 58 AUDIO
    TITLE "3:cjc157_2480"
    INDEX 01 01:05:26
  TRACK 59 AUDIO
    TITLE "0:"
    INDEX 01 01:06:36
  TRACK 60 AUDIO
    TITLE "4:cjc157_2481"
    INDEX 01 01:07:04
  TRACK 61 AUDIO
    TITLE "0:"
    INDEX 01 01:08:09
  TRACK 62 AUDIO
    TITLE "5:cjc157_2482"
    INDEX 01 01:08:52
  TRACK 63 AUDIO
    TITLE "0:"
    INDEX 01 01:10:30
  TRACK 64 AUDIO
    TITLE "3:cjc157_2483"
    INDEX 01 01:11:00
  TRACK 65 AUDIO
    TITLE "0:"
    INDEX 01 01:12:21
  TRACK 66 AUDIO
    TITLE "4:cjc157_2484"
    INDEX 01 01:12:68
  TRACK 67 AUDIO
    TITLE "0:"
    INDEX 01 01:13:71
  TRACK 68 AUDIO
    TITLE "5:cjc157_2485"
    INDEX 01 01:14:43
  TRACK 69 AUDIO
    TITLE "0:"
    INDEX 01 01:16:26
  TRACK 70 AUDIO
    TITLE "5:cjc157_2486"
    INDEX 01 01:16:71
  TRACK 71 AUDIO
    TITLE "0:"
    INDEX 01 01:19:36
  TRACK 72 AUDIO
    TITLE "3:cjc157_2487"
    INDEX 01 01:20:10
  TRACK 73 AUDIO
    TITLE "0:"
    INDEX 01 01:21:21
  TRACK 74 AUDIO
    TITLE "4:cjc157_2488"
    INDEX 01 01:21:69
  TRACK 75 AUDIO
    TITLE "0:"
    INDEX 01 01:23:05
  TRACK 76 AUDIO
    TITLE "5:cjc157_2489"
    INDEX 01 01:23:48
  TRACK 77 AUDIO
    TITLE "0:"
    INDEX 01 01:25:31
  TRACK 78 AUDIO
    TITLE "5:cjc157_2490"
    INDEX 01 01:25:74
  TRACK 79 AUDIO
    TITLE "0:"
    INDEX 01 01:27:44
  TRACK 80 AUDIO
    TITLE "5:cjc157_2491"
    INDEX 01 01:28:14
  TRACK 81 AUDIO
    TITLE "0:"
    INDEX 01 01:29:68
